HIERARCHY
ROOT Hips
{
	OFFSET 0.000000 0.000000 0.000000
	CHANNELS 6 Xposition Yposition Zposition Zrotation Yrotation Xrotation 
	JOINT LHipJoint
	{
		OFFSET 0.000000 0.000000 0.000000
		CHANNELS 3 Zrotation Yrotation Xrotation
		JOINT LeftUpLeg
		{
			OFFSET 1.363060 -1.794630 0.839290
			CHANNELS 3 Zrotation Yrotation Xrotation
			JOINT LeftLeg
			{
				OFFSET 2.448110 -6.726130 0.000000
				CHANNELS 3 Zrotation Yrotation Xrotation
				JOINT LeftFoot
				{
					OFFSET 2.562200 -7.039590 0.000000
					CHANNELS 3 Zrotation Yrotation Xrotation
					JOINT LeftToeBase
					{
						OFFSET 0.157640 -0.433110 2.322550
						CHANNELS 3 Zrotation Yrotation Xrotation
						End Site
						{
							OFFSET 0.000000 0.000000 0.000000
						}
					}
				}
			}
		}
	}
	JOINT RHipJoint
	{
		OFFSET 0.000000 0.000000 0.000000
		CHANNELS 3 Zrotation Yrotation Xrotation
		JOINT RightUpLeg
		{
			OFFSET -1.305520 -1.794630 0.839290
			CHANNELS 3 Zrotation Yrotation Xrotation
			JOINT RightLeg
			{
				OFFSET -2.542530 -6.985550 0.000000
				CHANNELS 3 Zrotation Yrotation Xrotation
				JOINT RightFoot
				{
					OFFSET -2.568260 -7.056230 0.000000
					CHANNELS 3 Zrotation Yrotation Xrotation
					JOINT RightToeBase
					{
						OFFSET -0.164730 -0.452590 2.363150
						CHANNELS 3 Zrotation Yrotation Xrotation
						End Site
						{
							OFFSET 0.000000 0.000000 0.000000
						}
					}
				}
			}
		}
	}
}
MOTION
Frames: 14
Frame Time: 0.008333
2.362776 16.982909 1.054840 16.155179 -73.160856 -3.208547 -9.260386 3.177393 4.320220 -10.806883 0.088814 -24.651320 -2.448528 0.193553 20.764067 1.427996 7.332247 -7.838031 0.020500 0.000000 -47.077400 11.506251 -0.083055 0.117565 -2.775262 -17.727720 -17.742525 0.948999 -0.239988 22.016568 -2.661343 -12.648744 -7.101698 -0.785300 0.000001 -71.925900
2.331488 16.989070 1.058159 14.933037 -71.388163 -2.154048 -9.197245 3.204150 4.641363 -10.582097 -1.165523 -24.294242 -2.420456 0.157387 20.343278 1.358616 6.959982 -7.522047 0.064500 -0.000000 -47.172600 11.542848 -0.149219 -0.005542 -2.723167 -18.496434 -16.802864 0.902968 -0.180582 21.435616 -2.843978 -13.709594 -6.970021 -0.888000 -0.000000 -71.669400
2.299341 16.997257 1.061611 13.890295 -69.602685 -1.272976 -9.122080 3.232196 4.963500 -10.357005 -2.406992 -23.915220 -2.397420 0.116016 19.840147 1.286374 6.584922 -7.150431 0.112700 -0.000000 -47.268501 11.588784 -0.224256 -0.121226 -2.660041 -19.272529 -15.844453 0.858673 -0.116612 20.757065 -3.021874 -14.768552 -6.767590 -1.017100 -0.000001 -71.433800
2.266348 17.007072 1.065350 13.001072 -67.816553 -0.531632 -9.034490 3.262047 5.288616 -10.136769 -3.636661 -23.525250 -2.379662 0.069235 19.259412 1.213126 6.216939 -6.727199 0.164200 0.000000 -47.373200 11.644396 -0.307229 -0.226004 -2.588436 -20.053734 -14.891107 0.817116 -0.049146 20.000180 -3.193202 -15.813127 -6.506865 -1.171801 0.000000 -71.181400
2.233316 17.018235 1.069479 12.230114 -66.043750 0.096005 -8.936421 3.293216 5.610994 -9.919717 -4.841267 -23.119798 -2.367375 0.018683 18.612772 1.139084 5.855618 -6.262439 0.216401 -0.000000 -47.474200 11.708607 -0.396798 -0.324551 -2.510704 -20.845691 -13.937825 0.779175 0.021159 19.168560 -3.354719 -16.829945 -6.187659 -1.353500 -0.000000 -70.938400
2.200470 17.030346 1.074107 11.560523 -64.297423 0.628743 -8.828894 3.325721 5.929491 -9.707464 -6.017298 -22.700491 -2.360508 -0.035320 17.907118 1.065585 5.507833 -5.763734 0.268300 -0.000000 -47.569400 11.780896 -0.492140 -0.417141 -2.430529 -21.649314 -12.993327 0.745899 0.093486 18.273579 -3.503742 -17.804782 -5.816920 -1.560800 -0.000000 -70.699900
2.168465 17.043159 1.079305 10.972910 -62.591338 1.080417 -8.713761 3.358777 6.241464 -9.500014 -7.160101 -22.265660 -2.358613 -0.092103 17.149790 0.993842 5.180009 -5.238997 0.319000 0.000000 -47.655100 11.859936 -0.592225 -0.505643 -2.351907 -22.464520 -12.060073 0.718050 0.166965 17.324157 -3.637771 -18.724977 -5.399635 -1.792100 0.000000 -70.470100
2.137571 17.056374 1.085050 10.456176 -60.938834 1.461755 -8.593149 3.391907 6.544487 -9.297492 -8.264459 -21.813512 -2.361321 -0.151225 16.348051 0.924855 4.877375 -4.696365 0.368000 -0.000000 -47.726200 11.944350 -0.696516 -0.591037 -2.278736 -23.288433 -11.139959 0.696184 0.240873 16.328393 -3.754721 -19.579225 -4.940610 -2.044800 -0.000000 -70.250500
2.108410 17.069805 1.091303 9.995109 -59.354300 1.783730 -8.470255 3.424086 6.834679 -9.099142 -9.319707 -21.345462 -2.368092 -0.211789 15.513585 0.858999 4.600489 -4.145070 0.414500 0.000000 -47.773500 12.031737 -0.804770 -0.673813 -2.211861 -24.111316 -10.233964 0.680291 0.314329 15.296471 -3.853668 -20.361079 -4.445479 -2.316099 -0.000000 -70.028500
2.081083 17.083342 1.097875 9.589757 -57.847344 2.044173 -8.346009 3.454327 7.112549 -8.907082 -10.337940 -20.848105 -2.377624 -0.274579 14.637966 0.799059 4.369721 -3.584788 0.460800 0.000000 -47.812800 12.121530 -0.915875 -0.756377 -2.162352 -24.937070 -9.338636 0.670931 0.386493 14.230722 -3.932197 -21.057512 -3.914923 -2.602700 -0.000000 -69.848300
2.056195 17.096837 1.104592 9.223589 -56.431793 2.256793 -8.225223 3.481581 7.371782 -8.719016 -11.295680 -20.330373 -2.389562 -0.337923 13.743117 0.743654 4.172909 -3.026992 0.505600 -0.000000 -47.823100 12.210204 -1.030516 -0.837088 -2.124261 -25.742852 -8.455427 0.666862 0.456400 13.144707 -3.992027 -21.673475 -3.354997 -2.901900 0.000000 -69.676500
2.033938 17.110269 1.111187 8.893172 -55.118142 2.425393 -8.110502 3.504996 7.610001 -8.536033 -12.187381 -19.792404 -2.403037 -0.401528 12.835773 0.693371 4.013702 -2.475184 0.549800 0.000000 -47.806400 12.295907 -1.148253 -0.914761 -2.098321 -26.513509 -7.587925 0.667142 0.522839 12.053008 -4.034434 -22.209841 -2.774151 -3.208800 -0.000000 -69.485000
2.014447 17.123637 1.117253 8.598026 -53.913255 2.545451 -8.003245 3.523436 7.826211 -8.360533 -13.020002 -19.220804 -2.416772 -0.465673 11.910174 0.650003 3.906515 -1.926907 0.596200 0.000000 -47.775599 12.377762 -1.268302 -0.991371 -2.092623 -27.246480 -6.727736 0.670962 0.584951 10.955986 -4.059454 -22.665434 -2.169373 -3.522100 -0.000000 -69.333300
1.997923 17.136941 1.122469 8.332531 -52.825623 2.621181 -7.906265 3.536332 8.016985 -8.193808 -13.780925 -18.619447 -2.430216 -0.529463 10.978596 0.612978 3.846877 -1.385542 0.645200 0.000000 -47.727600 12.453784 -1.390370 -1.064992 -2.104253 -27.923468 -5.878729 0.676645 0.641537 9.869638 -4.069982 -23.048795 -1.548513 -3.838000 -0.000000 -69.206000
